<svg viewBox="0 0 650 800" xmlns="http://www.w3.org/2000/svg">
  <g id="SBdC_logo" fill="white" transform="translate(-25 15)">
    <path d="M212.476 41.007c4.413-2.949 8.476-4.819 13.165-6.061 5.157-1.364 11.129-1.478 16.802-1.478 6.634 0 13.564 1.461 22.474 4.737 7.363 2.707 14.384 6.573 20.498 10.145l8.116-9.9c8.067 6.102 19.524 12.387 29.081 15.485l-.921-5.478 6.964-2.24c-10.684-2.939-23.112-9.664-29.507-14.616l7.635-9.313c-9.397-5.926-20.084-11.663-30.528-15.502-8.556-3.146-20.13-6.757-33.812-6.757-7.489 0-16.23.199-25.205 2.572-8.254 2.186-15.581 5.531-23.052 10.528-7.583 5.067-13.907 11.553-18.544 19.272-5.246 8.726-7.905 18.324-7.905 28.526 0 9.884 2.405 19.071 7.154 27.315 4.353 7.547 9.779 13.54 16.321 18.315 6.364 4.656 13.096 8.289 20.565 11.098a329.066 329.066 0 0 0 20.22 6.873c8.599 2.617 16.741 5.316 24.193 8.02 6.417 2.331 12.053 5.133 16.742 8.322 3.179 2.167 5.804 5.171 8.258 9.448 2.202 3.843 3.186 7.561 3.186 12.052 0 5.288-1.066 9.834-3.257 13.896-2.59 4.798-5.444 8.303-8.983 11.033-4.053 3.126-9.501 5.773-15.338 7.461-5.978 1.726-12.526 2.566-20.017 2.566-9.611 0-19.383-2.007-29.872-6.135-8.653-3.405-19.879-10.806-25.273-16.571l-21.194 25.847c9.902 9.373 24.064 17.797 34.434 21.879 14.395 5.665 28.104 8.418 41.905 8.418 10.616 0 20.143-1.262 29.13-3.857 9.863-2.848 18.972-7.358 26.337-13.04 7.262-5.597 13.263-12.666 18.087-21.604 4.84-8.97 7.295-19.025 7.295-29.893 0-10.41-2.5-19.83-7.644-28.803-4.991-8.699-11.132-15.374-18.527-20.417-6.969-4.74-15.061-8.8-24.058-12.067-7.997-2.901-16.691-5.784-25.838-8.569a295.028 295.028 0 0 1-18.204-6.187c-4.637-1.745-8.795-3.985-12.719-6.855-2.806-2.047-4.962-4.531-6.99-8.046-1.764-3.066-2.659-6.597-2.659-10.499 0-4.054 1.014-7.71 3.099-11.183 2.118-3.522 4.862-6.379 8.386-8.737zm64.163-21.264c2.452 0 4.443 1.66 4.443 4.135 0 2.477-1.991 4.83-4.443 4.83-2.452 0-4.437-2.007-4.437-4.482s1.985-4.483 4.437-4.483z" id="Fill-1"/>
    <text id="Sara-Bento-de-Castro" font-family="StempelSchneidlerStd-Bold, Stempel Schneidler Std" font-size="40" font-weight="bold" letter-spacing="1">
      <tspan x="28.507" y="294">Sara Bento de Castro</tspan>
    </text>
  </g>
</svg>
