<?xml version="1.0" encoding="UTF-8"?>
<svg width="189px" height="134px" viewBox="0 0 189 134" version="1.1" xmlns="http://www.w3.org/2000/svg" xmlns:xlink="http://www.w3.org/1999/xlink">
    <!-- Generator: Sketch 43.2 (39069) - http://www.bohemiancoding.com/sketch -->
    <title>SBdC_logo_wordmark</title>
    <desc>Created with Sketch.</desc>
    <defs></defs>
    <g id="Page-1" stroke="none" stroke-width="1" fill="none" fill-rule="evenodd">
        <g id="SBdC_logo_wordmark" transform="translate(0.000000, -280.000000)" fill="#FFFFFF">
            <path d="M8.90618767,409.896175 C8.90618767,405.828971 2.88228016,406.235379 2.88228016,403.610252 C2.88228016,402.168621 3.99108981,401.613942 5.17355228,401.613942 C5.7279571,401.613942 6.65196515,401.65101 6.87381635,402.630408 C7.09522118,403.573631 7.11396917,403.610252 7.66837399,403.610252 C8.31473324,403.610252 8.40713405,403.407049 8.40713405,403.148466 C8.40713405,402.815301 8.29643164,401.447359 8.27813003,400.54165 C7.74202681,400.54165 6.09756032,400.319689 4.95214745,400.319689 C2.38367292,400.319689 0.221851206,401.521495 0.221851206,404.368583 C0.221851206,408.43534 6.24531233,407.917728 6.24531233,410.654058 C6.24531233,412.151515 5.04454826,412.706194 3.7138874,412.706194 C2.34662332,412.706194 1.7551689,412.428854 1.47796649,411.282427 C1.31191287,410.542854 1.25656166,410.469165 0.665107239,410.469165 C0.258454424,410.469165 0,410.561612 0,410.931398 C0,411.855864 0.147752011,412.761573 0.166053619,413.686039 C1.44136327,413.852175 2.71622654,414 4.00939142,414 C6.48546515,414 8.90618767,412.669126 8.90618767,409.896175 Z M18.292681,407.844039 C18.292681,405.218913 16.5928633,404.978641 14.0614383,404.978641 C13.6177359,404.978641 12.6941743,405.034019 12.2692198,405.107709 C11.9362198,405.144777 11.9179182,405.144777 11.8808686,405.200155 C11.7884678,405.32967 11.3822614,407.012019 11.3822614,407.233981 C11.3822614,407.455942 11.6777654,407.548388 12.0844182,407.548388 C12.2321702,407.548388 12.5830255,407.548388 12.7678271,407.086155 L12.9896783,406.568544 C13.1374303,406.272447 13.5811327,406.272447 14.0243887,406.272447 C15.7059048,406.272447 15.8536568,407.067398 15.8536568,408.36165 C14.0984879,408.676058 10.4395054,408.990019 10.4395054,411.578524 C10.4395054,413.001845 11.7331166,413.889243 13.0450295,413.889243 C14.3198928,413.889243 15.299252,413.44532 16.1125576,412.484233 C16.4263633,413.075981 17.1102185,413.889243 17.8123753,413.889243 C18.7176354,413.889243 19.4385402,412.816951 19.4385402,412.57668 C19.4385402,412.447165 19.2907882,412.373476 19.1242882,412.29934 C18.440433,412.022 18.292681,411.652214 18.292681,410.764816 L18.292681,407.844039 Z M15.8536568,411.023845 C15.8536568,411.929553 15.0220496,412.59499 14.227492,412.59499 C13.4146327,412.59499 12.9896783,412.077379 12.9896783,411.227049 C12.9896783,409.600078 15.5764544,409.433942 15.6876032,409.433942 C15.780004,409.433942 15.8536568,409.507631 15.8536568,409.618835 L15.8536568,411.023845 Z M21.9994263,411.837107 C21.9994263,412.465922 21.8882775,412.632058 21.4079718,412.706194 C20.9830174,412.779883 20.7241166,412.798641 20.7241166,413.075981 L20.7241166,413.667282 C20.7241166,413.815107 20.7611662,413.889243 20.9459678,413.889243 C21.2602198,413.889243 22.2208311,413.648971 23.2189383,413.648971 C24.5491528,413.648971 25.5468137,413.889243 25.8981153,413.889243 C26.1382681,413.889243 26.2489705,413.815107 26.2489705,413.667282 L26.2489705,413.223806 C26.2489705,412.816951 26.1382681,412.779883 25.3620121,412.706194 C24.604504,412.59499 24.4384504,412.354718 24.4384504,411.46732 L24.4384504,408.805126 C24.4384504,407.732835 25.2513097,407.049087 27.1729786,407.049087 L27.6349826,407.049087 C28.0228874,407.049087 28.1523378,406.974951 28.1523378,406.716369 L28.1523378,405.366738 C28.1523378,405.034019 27.8197842,404.978641 27.4131314,404.978641 C26.0275657,404.978641 25.066508,405.976796 24.4750536,407.104466 L24.4384504,407.104466 L24.4384504,405.163534 C24.4384504,404.959883 24.3826528,404.867437 24.2536488,404.867437 C24.0688472,404.867437 23.7175456,405.071087 23.4037399,405.200155 L21.167819,406.106311 C20.9089182,406.217068 20.8352654,406.346583 20.8352654,406.549786 L20.8352654,406.919573 C20.8352654,407.067398 20.8906166,407.159845 21.1124678,407.178602 C21.8882775,407.252291 21.9994263,407.363495 21.9994263,407.659146 L21.9994263,411.837107 Z M36.63,407.844039 C36.63,405.218913 34.9297359,404.978641 32.398311,404.978641 C31.955055,404.978641 31.0310469,405.034019 30.6060925,405.107709 C30.2735389,405.144777 30.2552373,405.144777 30.2181877,405.200155 C30.1257869,405.32967 29.719134,407.012019 29.719134,407.233981 C29.719134,407.455942 30.0146381,407.548388 30.4212909,407.548388 C30.5690429,407.548388 30.9203445,407.548388 31.1051461,407.086155 L31.3265509,406.568544 C31.4747493,406.272447 31.9180054,406.272447 32.3617078,406.272447 C34.0427775,406.272447 34.1909759,407.067398 34.1909759,408.36165 C32.4353606,408.676058 28.7768244,408.990019 28.7768244,411.578524 C28.7768244,413.001845 30.0704357,413.889243 31.3823485,413.889243 C32.6572118,413.889243 33.636571,413.44532 34.4494303,412.484233 C34.7636823,413.075981 35.4475375,413.889243 36.1496944,413.889243 C37.0549544,413.889243 37.7754129,412.816951 37.7754129,412.57668 C37.7754129,412.447165 37.6276609,412.373476 37.4616072,412.29934 C36.777752,412.022 36.63,411.652214 36.63,410.764816 L36.63,407.844039 Z M34.1909759,411.023845 C34.1909759,411.929553 33.3593686,412.59499 32.564811,412.59499 C31.7519517,412.59499 31.3265509,412.077379 31.3265509,411.227049 C31.3265509,409.600078 33.9137735,409.433942 34.0244759,409.433942 C34.1168767,409.433942 34.1909759,409.507631 34.1909759,409.618835 L34.1909759,411.023845 Z M55.4953874,410.228893 C55.4953874,407.917728 53.2594665,407.03033 51.300748,406.827126 L51.300748,406.790058 C53.1300161,406.549786 54.5160282,405.440427 54.5160282,403.481184 C54.5160282,401.447359 52.6497105,400.559961 50.5985912,400.559961 C50.1182855,400.559961 49.5826287,400.578718 49.0652735,400.61534 C48.5479182,400.634097 48.0301166,400.671165 47.568559,400.671165 C46.9030054,400.671165 46.3302989,400.61534 45.8682949,400.54165 C45.4250389,400.486272 45.0737373,400.430447 44.870634,400.430447 C44.6858324,400.430447 44.5380804,400.430447 44.5380804,400.744854 L44.5380804,401.170019 C44.5380804,401.37367 44.556382,401.466117 45.0183861,401.558563 L45.5727909,401.66932 C45.7946421,401.706388 46.0530965,401.927903 46.0530965,402.871126 L46.0530965,411.44901 C46.0530965,412.373476 45.7758941,412.632058 45.2955885,412.706194 C44.5380804,412.816951 44.4639812,412.854019 44.4456796,413.020155 C44.4269316,413.223806 44.40863,413.408699 44.40863,413.611903 C44.40863,413.796796 44.5010308,413.889243 44.6675308,413.889243 C45.0183861,413.889243 46.5334021,413.648971 47.402059,413.648971 C48.159567,413.648971 49.4161287,413.889243 50.7463432,413.889243 C54.0169745,413.889243 55.4953874,412.169825 55.4953874,410.228893 Z M48.8246743,402.149864 C48.8246743,401.854214 48.9541247,401.743456 49.3607775,401.743456 C51.1159464,401.743456 51.7444504,402.871126 51.7444504,403.943417 C51.7444504,405.551631 50.4695871,406.346583 48.8246743,406.346583 L48.8246743,402.149864 Z M48.8246743,407.529631 L49.6379799,407.529631 C51.3565456,407.529631 52.6126609,408.379961 52.6126609,410.136447 C52.6126609,411.633903 51.7815,412.706194 50.1923847,412.706194 C48.9541247,412.706194 48.8246743,411.966621 48.8246743,411.116291 L48.8246743,407.529631 Z M65.1349786,408.417029 C65.430929,408.36165 65.5233298,408.342893 65.5233298,408.232136 C65.5233298,406.161689 63.6382641,404.978641 61.7536448,404.978641 C59.0561662,404.978641 57.1340509,407.122777 57.1340509,409.711282 C57.1340509,412.132757 58.7419142,413.889243 61.4764424,413.889243 C63.8230657,413.889243 65.578681,411.837107 65.578681,411.633903 C65.578681,411.504388 65.2461273,411.097534 65.0983753,411.097534 C64.8948257,411.097534 64.0266153,412.188583 62.4928512,412.188583 C60.5894839,412.188583 59.8690255,410.912641 59.6842239,409.507631 L65.1349786,408.417029 Z M59.6842239,408.63899 C59.7025255,407.696214 60.2198807,406.050932 61.5875912,406.050932 C62.6959544,406.050932 63.0843056,406.882505 63.0843056,407.603767 C63.0843056,407.917728 62.8624544,407.973553 62.3263512,408.084311 L59.6842239,408.63899 Z M68.0819839,411.837107 C68.0819839,412.465922 67.9712815,412.632058 67.4909759,412.706194 C67.0660214,412.779883 66.8071206,412.798641 66.8071206,413.075981 L66.8071206,413.667282 C66.8071206,413.815107 66.8441702,413.889243 67.0289718,413.889243 C67.3432239,413.889243 68.2855335,413.648971 69.301496,413.648971 C70.3179048,413.648971 71.2602145,413.889243 71.5744665,413.889243 C71.7592681,413.889243 71.7963177,413.815107 71.7963177,413.667282 L71.7963177,413.075981 C71.7963177,412.798641 71.5374169,412.779883 71.1124625,412.706194 C70.6321568,412.632058 70.5214544,412.465922 70.5214544,411.837107 L70.5214544,407.78866 C70.5214544,407.548388 71.2789625,406.790058 72.2766233,406.790058 C73.366685,406.790058 73.995189,407.381806 73.995189,409.045398 L73.995189,411.837107 C73.995189,412.465922 73.8840402,412.632058 73.4037346,412.706194 C72.9787802,412.779883 72.7198794,412.798641 72.7198794,413.075981 L72.7198794,413.667282 C72.7198794,413.815107 72.756929,413.889243 72.9417306,413.889243 C73.2559826,413.889243 74.1982922,413.648971 75.2147011,413.648971 C76.2306635,413.648971 77.1734196,413.889243 77.4872252,413.889243 C77.6720268,413.889243 77.7090764,413.815107 77.7090764,413.667282 L77.7090764,413.075981 C77.7090764,412.798641 77.450622,412.779883 77.0252212,412.706194 C76.5449155,412.632058 76.4342131,412.465922 76.4342131,411.837107 L76.4342131,408.509476 C76.4342131,406.327825 75.5472547,404.978641 73.5702346,404.978641 C72.3873257,404.978641 71.3526153,405.736524 70.5580576,406.642233 L70.5214544,406.642233 L70.5214544,406.531476 C70.5214544,405.810214 70.7799088,405.828971 70.7799088,405.60701 C70.7799088,405.496252 70.6134088,404.867437 70.4290536,404.867437 C70.2808552,404.867437 70.0036528,404.996951 69.5603968,405.163534 L67.1584223,406.106311 C66.9548727,406.18 66.936571,406.291204 66.936571,406.45734 L66.936571,406.956641 C66.936571,407.122777 67.0660214,407.159845 67.2508231,407.178602 C67.9712815,407.252291 68.0819839,407.326427 68.0819839,407.659146 L68.0819839,411.837107 Z M79.4513003,411.578524 C79.4513003,413.131359 80.4860107,413.889243 81.927374,413.889243 C83.5905885,413.889243 84.9025013,412.613748 84.9025013,412.428854 C84.9025013,412.225204 84.5699477,411.855864 84.4587989,411.855864 C84.2739973,411.855864 83.8307413,412.373476 83.1285845,412.373476 C82.3523284,412.373476 81.8903244,411.74466 81.8903244,410.764816 L81.8903244,406.993709 C81.8903244,406.790058 82.0014732,406.73468 82.1304772,406.73468 L84.4587989,406.73468 C84.6806501,406.73468 84.7730509,406.642233 84.7730509,406.45734 L84.7730509,405.717767 C84.7730509,405.532874 84.6806501,405.440427 84.4587989,405.440427 L82.222878,405.440427 C81.9456756,405.440427 81.8903244,405.366738 81.8903244,405.163534 L81.8903244,403.018951 C81.8903244,402.79699 81.779622,402.741612 81.6501716,402.741612 L81.003366,402.741612 C80.8002627,402.741612 80.6708123,402.815301 80.5971595,403.277534 C80.3012091,405.089398 79.7655523,405.422117 78.8232426,405.773592 C78.4536394,405.921417 78.3982882,405.976796 78.3982882,406.18 L78.3982882,406.476097 C78.3982882,406.679301 78.471941,406.73468 78.6937922,406.73468 L79.2481971,406.73468 C79.3959491,406.73468 79.4513003,406.827126 79.4513003,407.012019 L79.4513003,411.578524 Z M90.5710898,412.706194 C89.0931233,412.706194 88.3909665,411.245359 88.3909665,409.433942 C88.3909665,407.58501 89.0931233,406.161689 90.5710898,406.161689 C92.0495027,406.161689 92.7516595,407.58501 92.7516595,409.433942 C92.7516595,411.245359 92.0495027,412.706194 90.5710898,412.706194 Z M90.5710898,413.889243 C93.7122708,413.889243 95.4125349,411.947864 95.4125349,409.433942 C95.4125349,406.882505 93.6015684,404.978641 90.5710898,404.978641 C87.5410576,404.978641 85.7300912,406.882505 85.7300912,409.433942 C85.7300912,411.947864 87.4299088,413.889243 90.5710898,413.889243 Z M111.968349,401.281223 C111.968349,400.689476 112.485704,400.689476 112.485704,400.504583 C112.485704,400.282621 112.245551,399.672563 112.116101,399.672563 C112.005398,399.672563 111.783547,399.783767 111.37734,399.931592 L108.605316,400.966816 C108.365164,401.040951 108.328114,401.114641 108.328114,401.576874 C108.328114,401.927903 108.365164,401.983728 108.808866,402.039107 L109.196771,402.094485 C109.436924,402.112796 109.529324,402.186932 109.529324,402.889437 L109.529324,405.866039 L109.492275,405.866039 C108.97492,405.218913 108.087961,404.978641 107.201003,404.978641 C104.521826,404.978641 102.951012,407.418874 102.951012,409.84035 C102.951012,411.947864 104.022772,413.889243 106.295743,413.889243 C107.607655,413.889243 108.716465,413.038913 109.529324,412.151515 L109.529324,412.484233 C109.529324,413.038913 109.27087,413.131359 109.27087,413.279184 C109.27087,413.482388 109.547626,413.889243 109.695824,413.889243 C109.788225,413.889243 109.954279,413.852175 110.13908,413.759728 L112.874055,412.465922 C113.132509,412.354718 113.243212,412.281029 113.243212,412.151515 C113.243212,411.947864 113.05841,411.393631 112.818257,411.393631 C112.689253,411.393631 112.393303,411.615146 112.1902,411.615146 C112.042448,411.615146 111.968349,411.46732 111.968349,411.227049 L111.968349,401.281223 Z M109.529324,410.986777 C109.529324,411.374874 108.402213,412.040311 107.737106,412.040311 C106.240391,412.040311 105.611887,410.727748 105.611887,409.396874 C105.611887,408.010175 106.277441,406.161689 107.940209,406.161689 C108.679416,406.161689 109.529324,406.771748 109.529324,407.233981 L109.529324,410.986777 Z M122.417674,408.417029 C122.713178,408.36165 122.805579,408.342893 122.805579,408.232136 C122.805579,406.161689 120.92096,404.978641 119.035894,404.978641 C116.338416,404.978641 114.416747,407.122777 114.416747,409.711282 C114.416747,412.132757 116.024164,413.889243 118.758692,413.889243 C121.105761,413.889243 122.86093,411.837107 122.86093,411.633903 C122.86093,411.504388 122.528377,411.097534 122.380625,411.097534 C122.177075,411.097534 121.308865,412.188583 119.775101,412.188583 C117.871733,412.188583 117.151275,410.912641 116.966473,409.507631 L122.417674,408.417029 Z M116.966473,408.63899 C116.985221,407.696214 117.502576,406.050932 118.86984,406.050932 C119.978204,406.050932 120.366555,406.882505 120.366555,407.603767 C120.366555,407.917728 120.144704,407.973553 119.609047,408.084311 L116.966473,408.63899 Z M130.362358,407.196913 C130.362358,411.929553 133.559336,414 137.957079,414 C139.472095,414 141.338413,413.556524 142.299471,413.556524 L142.687375,411.800039 C142.779776,411.393631 142.872177,410.949709 142.872177,410.746505 C142.872177,410.542854 142.632024,410.469165 142.151272,410.469165 C141.578566,410.469165 141.467863,410.691126 141.356714,411.005087 L141.13531,411.596835 C140.839359,412.373476 139.786347,412.706194 138.511484,412.706194 C135.333253,412.706194 133.355787,410.228893 133.355787,407.141534 C133.355787,403.758524 135.074353,401.613942 138.289633,401.613942 C139.89705,401.613942 140.821058,401.798835 141.005859,402.907748 C141.116562,403.554874 141.13531,403.758524 141.708016,403.758524 C142.114669,403.758524 142.410173,403.536563 142.410173,403.259223 C142.410173,402.612097 142.243673,401.576874 142.243673,400.744854 C141.208962,400.707786 139.86,400.319689 137.772277,400.319689 C133.559336,400.319689 130.362358,402.722854 130.362358,407.196913 Z M152.193945,407.844039 C152.193945,405.218913 150.494127,404.978641 147.962256,404.978641 C147.519,404.978641 146.594992,405.034019 146.170038,405.107709 C145.837484,405.144777 145.819182,405.144777 145.782133,405.200155 C145.689732,405.32967 145.283079,407.012019 145.283079,407.233981 C145.283079,407.455942 145.579029,407.548388 145.985236,407.548388 C146.132988,407.548388 146.48429,407.548388 146.669091,407.086155 L146.890942,406.568544 C147.038694,406.272447 147.48195,406.272447 147.925653,406.272447 C149.607169,406.272447 149.754921,407.067398 149.754921,408.36165 C147.999306,408.676058 144.340769,408.990019 144.340769,411.578524 C144.340769,413.001845 145.634381,413.889243 146.946294,413.889243 C148.221157,413.889243 149.200516,413.44532 150.013375,412.484233 C150.327627,413.075981 151.011483,413.889243 151.713639,413.889243 C152.618899,413.889243 153.339358,412.816951 153.339358,412.57668 C153.339358,412.447165 153.191606,412.373476 153.025552,412.29934 C152.341697,412.022 152.193945,411.652214 152.193945,410.764816 L152.193945,407.844039 Z M149.754921,411.023845 C149.754921,411.929553 148.923314,412.59499 148.128756,412.59499 C147.315897,412.59499 146.890942,412.077379 146.890942,411.227049 C146.890942,409.600078 149.477718,409.433942 149.588421,409.433942 C149.680822,409.433942 149.754921,409.507631 149.754921,409.618835 L149.754921,411.023845 Z M157.803611,413.889243 C159.799379,413.889243 161.813449,413.001845 161.813449,411.005087 C161.813449,409.211981 160.482788,408.694369 159.004822,408.379961 C157.61881,408.084311 156.990752,407.881107 156.990752,407.159845 C156.990752,406.512718 157.674161,406.161689 158.505768,406.161689 C159.373979,406.161689 159.854731,406.254136 159.965433,406.605165 L160.168536,407.344738 C160.224334,407.529631 160.297987,407.58501 160.482788,407.58501 L160.981842,407.58501 C161.184945,407.58501 161.351445,407.492563 161.351445,407.252291 C161.351445,406.642233 161.221995,406.013864 161.221995,405.403806 C161.221995,405.237223 161.129594,405.163534 161.037193,405.126466 C160.870693,405.05233 159.577528,404.978641 158.727619,404.978641 C156.990752,404.978641 154.69948,405.440427 154.69948,407.696214 C154.69948,409.378563 155.937294,409.859107 157.156806,410.154757 C158.339268,410.450854 159.522177,410.579922 159.522177,411.578524 C159.522177,412.31765 158.65352,412.706194 157.877264,412.706194 C157.175107,412.706194 156.232798,412.502544 156.122095,411.966621 L156.011393,411.411942 C155.955595,411.116291 155.881942,411.079223 155.161038,411.079223 C154.828484,411.079223 154.773133,411.227049 154.773133,411.411942 C154.773133,411.707592 154.884282,412.854019 154.957934,413.574835 C154.976236,413.70435 156.953702,413.889243 157.803611,413.889243 Z M164.253366,411.578524 C164.253366,413.131359 165.288076,413.889243 166.728993,413.889243 C168.392208,413.889243 169.704121,412.613748 169.704121,412.428854 C169.704121,412.225204 169.371567,411.855864 169.260865,411.855864 C169.076063,411.855864 168.632361,412.373476 167.930204,412.373476 C167.154394,412.373476 166.69239,411.74466 166.69239,410.764816 L166.69239,406.993709 C166.69239,406.790058 166.803092,406.73468 166.932543,406.73468 L169.260865,406.73468 C169.482269,406.73468 169.57467,406.642233 169.57467,406.45734 L169.57467,405.717767 C169.57467,405.532874 169.482269,405.440427 169.260865,405.440427 L167.024944,405.440427 C166.747741,405.440427 166.69239,405.366738 166.69239,405.163534 L166.69239,403.018951 C166.69239,402.79699 166.581241,402.741612 166.452237,402.741612 L165.805432,402.741612 C165.601882,402.741612 165.472878,402.815301 165.398779,403.277534 C165.103275,405.089398 164.567172,405.422117 163.624862,405.773592 C163.255259,405.921417 163.199908,405.976796 163.199908,406.18 L163.199908,406.476097 C163.199908,406.679301 163.274007,406.73468 163.495412,406.73468 L164.049816,406.73468 C164.197568,406.73468 164.253366,406.827126 164.253366,407.012019 L164.253366,411.578524 Z M172.224386,411.837107 C172.224386,412.465922 172.113684,412.632058 171.632932,412.706194 C171.207977,412.779883 170.949523,412.798641 170.949523,413.075981 L170.949523,413.667282 C170.949523,413.815107 170.986126,413.889243 171.170928,413.889243 C171.48518,413.889243 172.446237,413.648971 173.443898,413.648971 C174.774113,413.648971 175.77222,413.889243 176.123075,413.889243 C176.363228,413.889243 176.474377,413.815107 176.474377,413.667282 L176.474377,413.223806 C176.474377,412.816951 176.363228,412.779883 175.587418,412.706194 C174.82991,412.59499 174.66341,412.354718 174.66341,411.46732 L174.66341,408.805126 C174.66341,407.732835 175.476269,407.049087 177.397938,407.049087 L177.859942,407.049087 C178.248294,407.049087 178.377298,406.974951 178.377298,406.716369 L178.377298,405.366738 C178.377298,405.034019 178.044744,404.978641 177.638538,404.978641 C176.252525,404.978641 175.291468,405.976796 174.70046,407.104466 L174.66341,407.104466 L174.66341,405.163534 C174.66341,404.959883 174.608059,404.867437 174.478609,404.867437 C174.293807,404.867437 173.942952,405.071087 173.6287,405.200155 L171.392779,406.106311 C171.134324,406.217068 171.060225,406.346583 171.060225,406.549786 L171.060225,406.919573 C171.060225,407.067398 171.115576,407.159845 171.337428,407.178602 C172.113684,407.252291 172.224386,407.363495 172.224386,407.659146 L172.224386,411.837107 Z M183.811536,412.706194 C182.33357,412.706194 181.631413,411.245359 181.631413,409.433942 C181.631413,407.58501 182.33357,406.161689 183.811536,406.161689 C185.289949,406.161689 185.992106,407.58501 185.992106,409.433942 C185.992106,411.245359 185.289949,412.706194 183.811536,412.706194 Z M183.811536,413.889243 C186.952717,413.889243 188.652981,411.947864 188.652981,409.433942 C188.652981,406.882505 186.842015,404.978641 183.811536,404.978641 C180.781058,404.978641 178.970538,406.882505 178.970538,409.433942 C178.970538,411.947864 180.670355,413.889243 183.811536,413.889243 L183.811536,413.889243 Z"></path>
            <path d="M82.5956059,298.885223 C84.5654839,297.568194 86.3791287,296.733049 88.4722078,296.178369 C90.774193,295.569204 93.4399786,295.518291 95.9722962,295.518291 C98.9335858,295.518291 102.027004,296.170777 106.004256,297.633845 C109.290957,298.842796 112.424996,300.569359 115.154168,302.164621 L118.776993,297.743262 C122.377946,300.468427 127.49213,303.27532 131.75819,304.658893 L131.347074,302.211961 L134.455669,301.212019 C129.686538,299.89901 124.138918,296.896058 121.284314,294.684485 L124.69243,290.525282 C120.497791,287.878718 115.72732,285.316563 111.06532,283.602058 C107.246087,282.197049 102.079677,280.584369 95.9722962,280.584369 C92.6293512,280.584369 88.7275375,280.673243 84.7212708,281.733029 C81.0368445,282.709301 77.7662131,284.203184 74.4313029,286.434408 C71.0463981,288.697786 68.2234866,291.594 66.1536193,295.041767 C63.8119062,298.938369 62.6249799,303.225301 62.6249799,307.781534 C62.6249799,312.195748 63.6985255,316.29868 65.8183874,319.980466 C67.7614826,323.350524 70.1835442,326.02701 73.1037668,328.159981 C75.9445335,330.239359 78.9495684,331.861864 82.2835858,333.116369 C85.2073794,334.219922 88.245,335.252466 91.3094035,336.185864 C95.1478311,337.354175 98.7822627,338.56 102.108692,339.767612 C104.973117,340.808641 107.488918,342.060019 109.581997,343.484233 C111.001042,344.451573 112.172791,345.793165 113.268209,347.703728 C114.251139,349.420019 114.690378,351.080485 114.690378,353.086175 C114.690378,355.447806 114.214536,357.477612 113.236516,359.292155 C112.08039,361.434951 110.80642,363.000291 109.226678,364.219515 C107.417497,365.615592 104.985615,366.797748 102.380091,367.551165 C99.7116273,368.322 96.7887265,368.697592 93.4448887,368.697592 C89.1547239,368.697592 84.7926917,367.801262 80.1106046,365.957689 C76.2480724,364.43701 71.2370027,361.131709 68.8292252,358.557049 L59.3686327,370.100369 C63.7886944,374.285922 70.1103378,378.048544 74.7393056,379.871573 C81.1649558,382.401126 87.2843887,383.631068 93.4448887,383.631068 C98.1836662,383.631068 102.436335,383.067456 106.447958,381.908524 C110.850611,380.636602 114.916693,378.622427 118.204287,376.084835 C121.445903,373.585204 124.124634,370.428175 126.277975,366.436 C128.438457,362.430427 129.534322,357.939845 129.534322,353.086175 C129.534322,348.437049 128.41837,344.230058 126.122188,340.222699 C123.894302,336.337262 121.153078,333.356641 117.852092,331.104427 C114.741265,328.987087 111.129153,327.17433 107.113066,325.715282 C103.543359,324.419689 99.6625255,323.131689 95.5794812,321.88835 C92.8181702,321.047845 90.085874,320.118913 87.453567,319.125223 C85.3836997,318.345903 83.5276488,317.345515 81.7760509,316.063767 C80.5235067,315.149126 79.5611099,314.040214 78.6558499,312.470408 C77.8684343,311.101126 77.4689236,309.523728 77.4689236,307.781534 C77.4689236,305.970563 77.9215536,304.337786 78.8522574,302.787184 C79.7976917,301.214252 81.0225603,299.938311 82.5956059,298.885223 Z M111.236731,289.38868 C112.331256,289.38868 113.22,290.130039 113.22,291.235379 C113.22,292.341165 112.331256,293.392466 111.236731,293.392466 C110.142205,293.392466 109.256139,292.496136 109.256139,291.39035 C109.256139,290.28501 110.142205,289.38868 111.236731,289.38868 L111.236731,289.38868 Z" id="SBdC_logo_snake"></path>
        </g>
    </g>
</svg>